<svg width="1600" height="900" viewBox="0 0 1600 900" fill="none" xmlns="http://www.w3.org/2000/svg">
  <rect width="1600" height="900" fill="#08131C"/>
  <circle cx="1320" cy="180" r="200" fill="#7DE2FF" fill-opacity="0.08"/>
  <text x="110" y="130" fill="#F2C66D" font-family="Arial, sans-serif" font-size="22" letter-spacing="4">AI SYSTEMS</text>
  <text x="110" y="200" fill="#EDF4FB" font-family="Arial, sans-serif" font-size="54" font-weight="700">NexusGraph Macro Intelligence Pipeline</text>
  <text x="110" y="250" fill="#8EA4B6" font-family="Arial, sans-serif" font-size="24">Parallel connectors, structured inference, and operational alert delivery.</text>
  <rect x="110" y="330" width="250" height="170" rx="28" fill="#0F1B27" stroke="#24394A"/>
  <rect x="400" y="330" width="250" height="170" rx="28" fill="#0F1B27" stroke="#24394A"/>
  <rect x="690" y="330" width="250" height="170" rx="28" fill="#0F1B27" stroke="#24394A"/>
  <rect x="980" y="330" width="250" height="170" rx="28" fill="#0F1B27" stroke="#24394A"/>
  <rect x="1270" y="330" width="220" height="170" rx="28" fill="#0F1B27" stroke="#24394A"/>
  <text x="138" y="382" fill="#7DE2FF" font-size="18" font-family="Arial, sans-serif">GLOBAL NEWS</text>
  <text x="138" y="420" fill="#EDF4FB" font-size="28" font-weight="700" font-family="Arial, sans-serif">GDELT</text>
  <text x="428" y="382" fill="#7DE2FF" font-size="18" font-family="Arial, sans-serif">US MACRO</text>
  <text x="428" y="420" fill="#EDF4FB" font-size="28" font-weight="700" font-family="Arial, sans-serif">FRED</text>
  <text x="718" y="382" fill="#7DE2FF" font-size="18" font-family="Arial, sans-serif">BRAZIL MACRO</text>
  <text x="718" y="420" fill="#EDF4FB" font-size="28" font-weight="700" font-family="Arial, sans-serif">SGS / BCB</text>
  <text x="1008" y="382" fill="#7DE2FF" font-size="18" font-family="Arial, sans-serif">MARKETS</text>
  <text x="1008" y="420" fill="#EDF4FB" font-size="28" font-weight="700" font-family="Arial, sans-serif">yfinance</text>
  <text x="1298" y="382" fill="#7DE2FF" font-size="18" font-family="Arial, sans-serif">OUTPUT</text>
  <text x="1298" y="420" fill="#EDF4FB" font-size="28" font-weight="700" font-family="Arial, sans-serif">Alerts</text>
  <rect x="510" y="580" width="300" height="170" rx="28" fill="#0F1B27" stroke="#24394A"/>
  <rect x="850" y="580" width="300" height="170" rx="28" fill="#0F1B27" stroke="#24394A"/>
  <text x="540" y="632" fill="#7DE2FF" font-size="18" font-family="Arial, sans-serif">INFERENCE</text>
  <text x="540" y="670" fill="#EDF4FB" font-size="30" font-weight="700" font-family="Arial, sans-serif">LLM Engine</text>
  <text x="540" y="706" fill="#8EA4B6" font-size="18" font-family="Arial, sans-serif">Risk scoring, contagion chains, FIDC impact.</text>
  <text x="880" y="632" fill="#7DE2FF" font-size="18" font-family="Arial, sans-serif">DELIVERY</text>
  <text x="880" y="670" fill="#EDF4FB" font-size="30" font-weight="700" font-family="Arial, sans-serif">Observer Pattern</text>
  <text x="880" y="706" fill="#8EA4B6" font-size="18" font-family="Arial, sans-serif">Console rendering and Telegram notification.</text>
</svg>
