<svg xmlns="http://www.w3.org/2000/svg" viewBox="0 0 64 64" role="img" aria-label="GS favicon">
  <defs>
    <linearGradient id="bg" x1="0%" y1="0%" x2="100%" y2="100%">
      <stop offset="0%" stop-color="#153248" />
      <stop offset="100%" stop-color="#0b1621" />
    </linearGradient>
    <linearGradient id="ring" x1="0%" y1="0%" x2="100%" y2="100%">
      <stop offset="0%" stop-color="#8bd8ff" />
      <stop offset="100%" stop-color="#7fe4c3" />
    </linearGradient>
  </defs>
  <rect x="4" y="4" width="56" height="56" rx="18" fill="url(#bg)" />
  <rect x="4.75" y="4.75" width="54.5" height="54.5" rx="17.25" fill="none" stroke="url(#ring)" stroke-opacity="0.42" stroke-width="1.5" />
  <path d="M23.1 24.4c1.9-2 4.4-3 7.4-3 2.8 0 5.1.7 7 2l-2 3.3c-1.5-.9-3.1-1.3-4.9-1.3-2 0-3.6.7-4.8 2.1-1.2 1.4-1.8 3.2-1.8 5.4 0 2.3.6 4.2 1.8 5.6 1.2 1.4 2.9 2.1 5.1 2.1 1.5 0 2.8-.3 3.8-.8v-4.2h-4.6v-3.6h8.9v10.1c-2.3 1.7-5.2 2.6-8.7 2.6-3.4 0-6.1-1-8.1-3-2-2-3-4.9-3-8.7 0-3.5 1-6.3 2.9-8.3Z" fill="#f4f7fb"/>
  <path d="M43.2 23.1c1.6 1.2 2.8 2.8 3.5 4.8l-3.8 1.2c-.4-1.2-1.1-2.2-2-2.9-.9-.7-2-1-3.3-1-1.4 0-2.4.3-3.1.9-.7.6-1 1.4-1 2.4 0 .8.3 1.5.9 2 .6.5 1.7 1 3.5 1.5 2.8.7 4.8 1.6 6 2.8 1.2 1.1 1.8 2.7 1.8 4.7 0 2.1-.8 3.9-2.4 5.2-1.6 1.3-3.8 2-6.6 2-4.1 0-7-1.6-8.7-4.9l3.7-1.5c1.2 1.8 2.9 2.7 5.2 2.7 1.6 0 2.9-.3 3.7-.9.9-.6 1.3-1.5 1.3-2.6 0-.9-.3-1.6-.9-2.2-.6-.6-1.8-1.1-3.6-1.6-2.8-.7-4.8-1.6-5.9-2.6-1.2-1-1.7-2.5-1.7-4.4 0-2.1.8-3.8 2.3-5.1 1.5-1.3 3.6-1.9 6.2-1.9 2.5 0 4.5.6 6.2 1.8Z" fill="#f2c46f"/>
</svg>
