<svg width="1600" height="900" viewBox="0 0 1600 900" fill="none" xmlns="http://www.w3.org/2000/svg">
  <rect width="1600" height="900" fill="#071119"/>
  <circle cx="1220" cy="180" r="220" fill="#7DE2FF" fill-opacity="0.08"/>
  <circle cx="260" cy="760" r="220" fill="#F2C66D" fill-opacity="0.08"/>
  <rect x="80" y="70" width="1440" height="760" rx="40" fill="#0C1823" stroke="#24394A"/>
  <text x="130" y="145" fill="#EDF4FB" font-family="Arial, sans-serif" font-size="28" font-weight="700">Gabriel Saganski</text>
  <text x="130" y="178" fill="#8EA4B6" font-family="Arial, sans-serif" font-size="18">AI Applied Systems Engineer</text>
  <text x="130" y="260" fill="#F2C66D" font-family="Arial, sans-serif" font-size="18" letter-spacing="4">PORTFOLIO</text>
  <text x="130" y="330" fill="#EDF4FB" font-family="Arial, sans-serif" font-size="56" font-weight="700">Operator-grade systems with AI and automation.</text>
  <rect x="130" y="400" width="260" height="56" rx="28" fill="#7DE2FF"/>
  <rect x="410" y="400" width="260" height="56" rx="28" fill="#162633" stroke="#2B4152"/>
  <rect x="130" y="520" width="400" height="220" rx="28" fill="#101E2B" stroke="#24394A"/>
  <rect x="560" y="520" width="400" height="220" rx="28" fill="#101E2B" stroke="#24394A"/>
  <rect x="990" y="520" width="400" height="220" rx="28" fill="#101E2B" stroke="#24394A"/>
  <text x="160" y="570" fill="#7DE2FF" font-family="Arial, sans-serif" font-size="18">LEGAL</text>
  <text x="160" y="610" fill="#EDF4FB" font-family="Arial, sans-serif" font-size="30" font-weight="700">Law Hub Legal System</text>
  <text x="590" y="570" fill="#7DE2FF" font-family="Arial, sans-serif" font-size="18">FINTECH</text>
  <text x="590" y="610" fill="#EDF4FB" font-family="Arial, sans-serif" font-size="30" font-weight="700">OWN Acquirer Panel</text>
  <text x="1020" y="570" fill="#7DE2FF" font-family="Arial, sans-serif" font-size="18">AI + AUTOMATION</text>
  <text x="1020" y="610" fill="#EDF4FB" font-family="Arial, sans-serif" font-size="30" font-weight="700">Systems Portfolio</text>
</svg>
